<svg width="48" height="48" viewBox="0 0 48 48" fill="none" xmlns="http://www.w3.org/2000/svg">
<path fill-rule="evenodd" clip-rule="evenodd" d="M26.593 15.092C25.7135 15.2578 24.889 15.6396 24.1936 16.203C23.4981 16.7663 22.9536 17.4937 22.6088 18.3196C22.2641 19.1456 22.1299 20.0442 22.2185 20.9348C22.307 21.8254 22.6154 22.6801 23.116 23.422L9.28203 34.16C8.83147 33.9266 8.31525 33.8523 7.81716 33.9492C7.31908 34.0462 6.86839 34.3086 6.53827 34.694C6.20814 35.0794 6.01798 35.565 5.99864 36.072C5.9793 36.5791 6.13192 37.0778 6.43173 37.4872C6.73154 37.8966 7.16093 38.1926 7.65018 38.3272C8.13943 38.4618 8.65982 38.4271 9.12684 38.2286C9.59386 38.0302 9.9801 37.6798 10.2228 37.2342C10.4656 36.7886 10.5506 36.274 10.464 35.774L24.534 24.852C25.1966 25.306 25.9521 25.6066 26.7455 25.7317C27.5389 25.8568 28.3502 25.8033 29.1203 25.5752C29.8904 25.347 30.6 24.95 31.1972 24.4129C31.7945 23.8759 32.2644 23.2124 32.5728 22.4707C32.8811 21.7291 33.0202 20.928 32.9797 20.1258C32.9393 19.3236 32.7204 18.5405 32.3391 17.8336C31.9577 17.1268 31.4235 16.5138 30.7753 16.0396C30.127 15.5653 29.3812 15.2416 28.592 15.092L28.594 6H26.594V15.092H26.593ZM25.794 20.4C25.794 20.6364 25.8406 20.8704 25.931 21.0888C26.0215 21.3072 26.1541 21.5056 26.3212 21.6728C26.4884 21.8399 26.6868 21.9725 26.9052 22.063C27.1236 22.1534 27.3576 22.2 27.594 22.2C27.8304 22.2 28.0645 22.1534 28.2829 22.063C28.5012 21.9725 28.6997 21.8399 28.8668 21.6728C29.034 21.5056 29.1665 21.3072 29.257 21.0888C29.3475 20.8704 29.394 20.6364 29.394 20.4C29.394 19.9226 29.2044 19.4648 28.8668 19.1272C28.5293 18.7896 28.0714 18.6 27.594 18.6C27.1166 18.6 26.6588 18.7896 26.3212 19.1272C25.9837 19.4648 25.794 19.9226 25.794 20.4V20.4Z" fill="black"/>
<path d="M20.37 20.384C20.3697 19.0007 20.7678 17.6466 21.5167 16.4837C22.2656 15.3207 23.3336 14.398 24.593 13.826V6.10596C20.304 6.48296 18.076 7.83396 16.081 9.68296C15.981 9.77696 15.881 9.86796 15.785 9.95596V9.95696C14.935 10.737 14.259 11.358 13.91 12.288L9.67602 23.56C9.56254 23.8625 9.5241 24.188 9.56399 24.5087C9.60387 24.8293 9.72088 25.1355 9.90501 25.4011C10.0891 25.6666 10.3349 25.8835 10.6212 26.0333C10.9075 26.183 11.2259 26.2612 11.549 26.261H13.18V28.6L20.755 22.717C20.4986 21.9662 20.3682 21.1783 20.369 20.385L20.37 20.384Z" fill="black"/>
<path d="M30.593 13.8462V6.24121C39.583 7.59421 41.996 14.3012 41.996 17.9752C41.996 23.7422 38.313 28.2152 36.586 30.0082V42.0002H19.474V35.4882H15.181C14.879 35.4882 14.591 35.4202 14.335 35.3002L24.92 27.0802C26.6695 27.8022 28.6329 27.8063 30.3854 27.0916C32.1378 26.3769 33.5385 25.0009 34.2841 23.2614C35.0298 21.5219 35.0606 19.5587 34.3698 17.7967C33.679 16.0347 32.3222 14.6155 30.593 13.8462V13.8462Z" fill="black"/>
</svg>
