<svg width="24" height="31" viewBox="0 0 24 31" fill="none" xmlns="http://www.w3.org/2000/svg">
<path d="M20 13.8496H22C22 7.39004 18.127 2.51833 12.99 2.51833V5.03666C17.052 5.03666 20 8.74239 20 13.8496Z" fill="black"/>
<path d="M13 10.0733C15.103 10.0733 16 11.2028 16 13.8508H18C18 9.79002 16.225 7.555 13 7.555V10.0733ZM16.422 16.927C16.2298 16.7071 15.9773 16.5898 15.7178 16.5999C15.4582 16.61 15.212 16.7467 15.031 16.9811L12.638 20.0799C12.062 19.9414 10.904 19.4869 9.71198 17.9897C8.51998 16.4875 8.15898 15.0256 8.05198 14.3054L10.511 11.2909C10.6974 11.0632 10.8061 10.7531 10.8141 10.4262C10.8222 10.0993 10.7289 9.78126 10.554 9.53945L6.85898 4.42345C6.68402 4.18088 6.44086 4.03375 6.18113 4.01329C5.9214 3.99284 5.66557 4.10068 5.46798 4.31391L3.29798 6.65721C3.12509 6.8757 3.0219 7.16648 3.00798 7.47441C2.99298 7.7892 2.70698 15.246 7.29898 21.0306C11.305 26.0736 16.323 26.4425 17.705 26.4425C17.907 26.4425 18.031 26.4349 18.064 26.4324C18.3085 26.4152 18.5393 26.2847 18.712 26.066L20.572 23.3324C20.7414 23.0837 20.8273 22.7617 20.8112 22.4346C20.7951 22.1076 20.6785 21.8013 20.486 21.5809L16.422 16.927V16.927Z" fill="black"/>
</svg>
