<svg width="30" height="30" viewBox="0 0 30 30" fill="none" xmlns="http://www.w3.org/2000/svg">
<path d="M1.875 8.90625C1.875 7.095 3.345 5.625 5.15625 5.625H24.8438C26.655 5.625 28.125 7.095 28.125 8.90625V13.0069C27.7868 12.7669 27.4137 12.5804 27.0187 12.4538L26.25 12.21V8.90625C26.25 8.53329 26.1018 8.1756 25.8381 7.91188C25.5744 7.64816 25.2167 7.5 24.8438 7.5H5.15625C4.78329 7.5 4.4256 7.64816 4.16188 7.91188C3.89816 8.1756 3.75 8.53329 3.75 8.90625V21.0938C3.75 21.87 4.38 22.5 5.15625 22.5H9.375V20.625C9.375 20.1277 9.57254 19.6508 9.92418 19.2992C10.2758 18.9475 10.7527 18.75 11.25 18.75H18.75C19.2473 18.75 19.7242 18.9475 20.0758 19.2992C20.4275 19.6508 20.625 20.1277 20.625 20.625V21.0094C20.0674 20.9995 19.5162 21.1294 19.0217 21.3871C18.5272 21.6449 18.105 22.0223 17.7937 22.485L16.8919 23.8088L16.7569 24.0338L16.7325 24.075C16.6802 24.1727 16.6327 24.2728 16.59 24.375H5.15625C4.28601 24.375 3.45141 24.0293 2.83606 23.4139C2.2207 22.7986 1.875 21.964 1.875 21.0938V8.90625Z" fill="yellow"/>
<path d="M27.975 15.9469C28.0725 16.3781 28.1232 16.8319 28.125 17.3063V17.3588C28.1194 18.9975 27.5344 20.8856 26.37 23.0213C26.1263 23.4713 25.8788 23.8913 25.6256 24.2813C24.3188 26.3081 22.9106 27.5569 21.3994 28.0294C21.0553 28.1358 20.6899 28.1534 20.3371 28.0806C19.9844 28.0078 19.6558 27.847 19.3819 27.6131L19.2319 27.4763L18.6525 26.895C18.4081 26.6436 18.2502 26.3208 18.2017 25.9735C18.1531 25.6263 18.2165 25.2726 18.3825 24.9638L18.4688 24.825L19.3444 23.5388C19.4888 23.3232 19.6877 23.1497 19.9208 23.0357C20.154 22.9218 20.4131 22.8715 20.6719 22.89C20.7281 22.8938 20.7863 22.9031 20.8444 22.9144L20.9981 22.9575L22.6125 23.4956C23.2575 23.0081 23.7938 22.3931 24.225 21.6544C24.5944 21.0206 24.8344 20.3775 24.9488 19.725L24.9956 19.3988L23.6513 18.1238C23.4336 17.9125 23.2788 17.6451 23.204 17.3512C23.1292 17.0572 23.1373 16.7483 23.2275 16.4588L23.2838 16.2994L23.895 14.8613C24.0208 14.5426 24.254 14.2779 24.5543 14.1129C24.8545 13.9479 25.2029 13.8929 25.5394 13.9575L25.6838 13.995L26.4469 14.2388C27.2063 14.4825 27.7857 15.1313 27.9732 15.945L27.975 15.9469Z" fill="black"/>
<path d="M18.75 13.125C18.75 14.1196 18.3549 15.0734 17.6516 15.7766C16.9484 16.4799 15.9946 16.875 15 16.875C14.0054 16.875 13.0516 16.4799 12.3483 15.7766C11.6451 15.0734 11.25 14.1196 11.25 13.125C11.25 12.1304 11.6451 11.1766 12.3483 10.4733C13.0516 9.77009 14.0054 9.375 15 9.375C15.9946 9.375 16.9484 9.77009 17.6516 10.4733C18.3549 11.1766 18.75 12.1304 18.75 13.125Z" fill="black"/>
</svg>
