<svg width="48" height="48" viewBox="0 0 48 48" fill="none" xmlns="http://www.w3.org/2000/svg">
<path d="M27.596 22.2021C27.3595 22.2021 27.1254 22.1555 26.907 22.065C26.6885 21.9745 26.49 21.8419 26.3228 21.6747C26.1556 21.5075 26.023 21.309 25.9325 21.0906C25.8421 20.8721 25.7955 20.638 25.7955 20.4016C25.7955 20.1651 25.8421 19.931 25.9325 19.7126C26.023 19.4941 26.1556 19.2956 26.3228 19.1284C26.49 18.9612 26.6885 18.8286 26.907 18.7381C27.1254 18.6476 27.3595 18.6011 27.596 18.6011C28.0735 18.6011 28.5315 18.7908 28.8691 19.1284C29.2068 19.4661 29.3965 19.9241 29.3965 20.4016C29.3965 20.8791 29.2068 21.3371 28.8691 21.6747C28.5315 22.0124 28.0735 22.2021 27.596 22.2021V22.2021Z" fill="black"/>
<path fill-rule="evenodd" clip-rule="evenodd" d="M36.59 30.008V42H19.478V35.488H15.185C14.917 35.488 14.661 35.435 14.428 35.34L16.808 33.488H21.478V40H34.591V29.202L35.151 28.621C36.791 26.916 40 22.931 40 17.975C40 16.345 39.385 13.848 37.534 11.785C35.901 9.964 33.161 8.32 28.597 8.042V15.092C29.3862 15.2416 30.132 15.5653 30.7802 16.0396C31.4284 16.5138 31.9627 17.1268 32.3441 17.8336C32.7254 18.5405 32.9443 19.3236 32.9847 20.1258C33.0251 20.928 32.8861 21.7291 32.5777 22.4707C32.2694 23.2124 31.7994 23.8759 31.2022 24.4129C30.6049 24.95 29.8954 25.347 29.1253 25.5752C28.3552 25.8033 27.5439 25.8568 26.7505 25.7317C25.9571 25.6066 25.2016 25.306 24.539 24.852L10.469 35.775C10.5557 36.2749 10.4708 36.7895 10.2282 37.2351C9.98564 37.6808 9.59953 38.0314 9.1326 38.2299C8.66567 38.4285 8.14532 38.4634 7.65605 38.329C7.16678 38.1946 6.7373 37.8987 6.43734 37.4895C6.13738 37.0803 5.98456 36.5816 6.00367 36.0746C6.02279 35.5676 6.21272 35.0819 6.54264 34.6964C6.87257 34.3109 7.3231 34.0482 7.82111 33.951C8.31911 33.8538 8.83534 33.9278 9.286 34.161L23.12 23.42C22.6194 22.6781 22.311 21.8234 22.2224 20.9328C22.1339 20.0422 22.268 19.1436 22.6128 18.3176C22.9575 17.4917 23.5021 16.7643 24.1975 16.201C24.893 15.6376 25.7175 15.2558 26.597 15.09V8.007C24.054 8.054 22.292 8.395 20.959 8.895C19.547 9.425 18.5 10.174 17.445 11.152L17.303 11.284C16.269 12.242 15.961 12.528 15.786 12.994L11.553 24.264H15.185V27.152L13.185 28.707V26.264H11.553C11.2298 26.2644 10.9113 26.1865 10.6249 26.0368C10.3384 25.8871 10.0926 25.6701 9.90837 25.4045C9.7242 25.139 9.60721 24.8326 9.56743 24.5119C9.52765 24.1911 9.56628 23.8655 9.68 23.563L13.914 12.29C14.263 11.36 14.938 10.74 15.788 9.96C15.8872 9.86891 15.9862 9.77757 16.085 9.686C18.45 7.492 21.141 6 27.202 6C38.994 6 42 13.875 42 17.975C42 23.742 38.317 28.216 36.59 30.008V30.008ZM27.597 23.8C27.1505 23.8001 26.7084 23.7122 26.2958 23.5414C25.8833 23.3706 25.5085 23.1202 25.1927 22.8045C24.8769 22.4888 24.6264 22.1141 24.4555 21.7016C24.2846 21.2891 24.1966 20.847 24.1965 20.4005C24.1964 19.954 24.2843 19.5119 24.4551 19.0993C24.6259 18.6868 24.8763 18.312 25.192 17.9962C25.5077 17.6804 25.8824 17.4299 26.2949 17.259C26.7074 17.0881 27.1495 17.0001 27.596 17C28.4977 17 29.3625 17.3582 30.0002 17.9958C30.6378 18.6335 30.996 19.4983 30.996 20.4C30.996 21.3017 30.6378 22.1665 30.0002 22.8042C29.3625 23.4418 28.4977 23.8 27.596 23.8H27.597Z" fill="black"/>
</svg>
