<svg width="30" height="30" viewBox="0 0 30 30" fill="none" xmlns="http://www.w3.org/2000/svg">
<path d="M21.5625 15C21.6413 15 21.7181 15.0038 21.795 15.0094L21.54 15.6113L21.45 15.8606L21.435 15.9075C21.0544 17.1488 21.3788 18.5512 22.3594 19.4831L22.9312 20.0269C22.7468 20.5139 22.4819 20.9664 22.1475 21.3656L21.5419 21.1613L21.2869 21.0919L21.2344 21.0806C20.5864 20.9453 19.9128 21.0065 19.2998 21.2563C18.6869 21.5062 18.1624 21.9334 17.7937 22.4831L16.8919 23.8088L16.7569 24.0338L16.7325 24.075C16.3864 24.7199 16.2489 25.4562 16.3387 26.1825C15.894 26.2281 15.4471 26.2506 15 26.25C9.1125 26.25 5.625 22.4456 5.625 18.75V17.8125C5.625 17.0666 5.92132 16.3512 6.44876 15.8238C6.97621 15.2963 7.69158 15 8.4375 15H21.5625Z" fill="white"/>
<path d="M20.9981 22.9575L22.3856 23.4188L22.6125 23.4938C23.2575 23.0063 23.7938 22.3931 24.225 21.6544C24.5944 21.0206 24.8344 20.3775 24.9488 19.725L24.9956 19.3988L23.6513 18.1238C23.4336 17.9125 23.2788 17.6451 23.204 17.3512C23.1292 17.0572 23.1373 16.7483 23.2275 16.4588L23.2838 16.2994L23.895 14.8613C24.0208 14.5426 24.254 14.2779 24.5542 14.1129C24.8545 13.9479 25.2029 13.8929 25.5394 13.9575L25.6838 13.995L26.4469 14.2388C27.2044 14.4825 27.7856 15.1313 27.9731 15.945C28.4175 17.8838 27.8831 20.2425 26.37 23.0213C24.8588 25.7963 23.2013 27.4669 21.3994 28.0275C21.0556 28.1344 20.6904 28.1526 20.3376 28.0805C19.9849 28.0084 19.6561 27.8482 19.3819 27.615L19.2319 27.4763L18.6525 26.895C18.4081 26.6436 18.2502 26.3208 18.2017 25.9735C18.1531 25.6263 18.2165 25.2726 18.3825 24.9638L18.4688 24.825L19.3444 23.5388C19.4883 23.3234 19.6865 23.1499 19.9189 23.0357C20.1513 22.9214 20.4098 22.8705 20.6681 22.8881C20.7274 22.8932 20.7862 22.9019 20.8444 22.9144L20.9981 22.9575Z" fill="white"/>
<path d="M15 2.8125C16.3675 2.8125 17.679 3.35575 18.646 4.32273C19.613 5.28972 20.1562 6.60123 20.1562 7.96875C20.1562 9.33627 19.613 10.6478 18.646 11.6148C17.679 12.5818 16.3675 13.125 15 13.125C13.6325 13.125 12.321 12.5818 11.354 11.6148C10.387 10.6478 9.84375 9.33627 9.84375 7.96875C9.84375 6.60123 10.387 5.28972 11.354 4.32273C12.321 3.35575 13.6325 2.8125 15 2.8125Z" fill="white"/>
</svg>
