<svg width="1025" height="1023" viewBox="0 0 1025 1023" fill="none" xmlns="http://www.w3.org/2000/svg">
<path d="M1017.64 733L667.64 384L1017.64 34C1022.31 44 1024.64 54 1024.64 64V704C1024.64 714 1022.31 723.667 1017.64 733V733ZM63.64 0H961.64L512.64 449L63.64 0ZM7.64001 733C2.97335 723.667 0.640015 714 0.640015 704V64C0.640015 54 2.97335 44 7.64001 34L357.64 384L7.64001 733ZM473.64 500C477.64 504 482.807 507 489.14 509C495.473 511 500.973 512 505.64 512H512.64C529.973 512.667 542.973 508.667 551.64 500L622.64 429L961.64 768H960.64V770L961.14 774L960.64 780L958.14 787.5L953.64 796L945.64 806L702.64 1014C697.307 1018.67 687.807 1021.5 674.14 1022.5C660.473 1023.5 646.473 1022.33 632.14 1019C617.807 1015.67 604.973 1009.5 593.64 1000.5C582.307 991.5 576.64 980.667 576.64 968V896H384.64C367.307 896 352.307 889.667 339.64 877C326.973 864.333 320.64 849.333 320.64 832V768H63.64L402.64 429L473.64 500ZM448.64 832H640.64V913C657.973 929.667 672.307 932.333 683.64 921L832.64 792C839.307 785.333 842.64 777.333 842.64 768C842.64 758.667 839.307 750.667 832.64 744L683.64 615C672.307 603.667 657.973 606.333 640.64 623V704H448.64C430.64 704 415.473 710.167 403.14 722.5C390.807 734.833 384.64 749.833 384.64 767.5C384.64 785.167 390.973 800.333 403.64 813C416.307 825.667 431.307 832 448.64 832Z" fill="black"/>
</svg>
