<svg width="24" height="29" viewBox="0 0 24 29" fill="none" xmlns="http://www.w3.org/2000/svg">
<path d="M12 15.2858C13.6569 15.2858 15 13.7065 15 11.7583C15 9.81015 13.6569 8.23083 12 8.23083C10.3431 8.23083 9 9.81015 9 11.7583C9 13.7065 10.3431 15.2858 12 15.2858Z" stroke="white" stroke-width="2" stroke-linecap="round" stroke-linejoin="round"/>
<path d="M12 2.35167C9.87827 2.35167 7.84344 3.34273 6.34315 5.10682C4.84285 6.87091 4 9.26353 4 11.7583C4 13.983 4.402 15.4387 5.5 17.0496L12 25.8683L18.5 17.0496C19.598 15.4387 20 13.983 20 11.7583C20 9.26353 19.1571 6.87091 17.6569 5.10682C16.1566 3.34273 14.1217 2.35167 12 2.35167V2.35167Z" stroke="white" stroke-width="2" stroke-linecap="round" stroke-linejoin="round"/>
</svg>
