<svg width="16" height="16" viewBox="0 0 16 16" fill="none" xmlns="http://www.w3.org/2000/svg">
<path fill-rule="evenodd" clip-rule="evenodd" d="M7.99996 0.0307617C5.28296 0.0307617 3.07996 2.14976 3.07996 4.76376C3.07996 5.43876 3.22996 6.08076 3.49396 6.66176L8.08396 13.9828L12.506 6.66176C12.7779 6.06599 12.9184 5.41866 12.918 4.76376C12.918 2.14976 10.717 0.0307617 7.99996 0.0307617ZM7.99996 8.12076C7.59392 8.12011 7.19199 8.03943 6.81715 7.88335C6.44231 7.72727 6.1019 7.49884 5.8154 7.21113C5.52889 6.92341 5.30189 6.58205 5.14739 6.20656C4.99289 5.83106 4.9139 5.4288 4.91496 5.02276C4.91417 4.61685 4.99334 4.21475 5.14795 3.83943C5.30256 3.46411 5.52958 3.12292 5.81604 2.83534C6.10251 2.54775 6.44282 2.31941 6.81754 2.16334C7.19225 2.00728 7.59404 1.92655 7.99996 1.92576C8.81975 1.92762 9.60528 2.25485 10.1839 2.83557C10.7626 3.41628 11.087 4.20297 11.086 5.02276C11.0873 5.84273 10.763 6.62967 10.1843 7.2106C9.6056 7.79153 8.81992 8.11891 7.99996 8.12076V8.12076ZM9.97696 4.98276C9.97748 5.24299 9.92673 5.50078 9.8276 5.74139C9.72847 5.98201 9.5829 6.20073 9.39921 6.38507C9.21552 6.5694 8.99732 6.71574 8.75706 6.81572C8.51679 6.9157 8.25919 6.96737 7.99896 6.96776C7.47364 6.96644 6.97034 6.75662 6.59964 6.38442C6.22894 6.01222 6.02116 5.50807 6.02196 4.98276C6.02156 4.72274 6.07239 4.4652 6.17153 4.22482C6.27067 3.98444 6.41618 3.76595 6.59976 3.58181C6.78334 3.39767 7.0014 3.2515 7.24147 3.15163C7.48154 3.05176 7.73894 3.00016 7.99896 2.99976C9.09096 2.99976 9.97696 3.88876 9.97696 4.98276Z" fill="black"/>
<path fill-rule="evenodd" clip-rule="evenodd" d="M5.29899 11.823C3.58199 12.187 2.86899 12.665 2.86899 13.202C2.86899 13.971 4.69999 15.031 7.98499 15.031C11.27 15.031 13.101 13.971 13.101 13.202C13.101 12.667 12.393 12.203 10.7 11.823V11.003C12.565 11.369 13.954 12.104 13.954 13.202C13.954 14.786 10.878 15.972 7.98499 15.972C5.09199 15.972 2.01599 14.786 2.01599 13.202C2.01599 12.102 3.41399 11.353 5.28899 11L5.29899 11.823V11.823Z" fill="black"/>
</svg>
