<svg width="183" height="76" viewBox="0 0 183 76" fill="none" xmlns="http://www.w3.org/2000/svg">
<path d="M183 75.9901H0V36.4617C0.972447 36.4114 1.94489 36.4617 2.91734 36.4617H52.4781V37.4832H0.734198V74.8895C60.3323 74.8895 119.942 74.8895 179.562 74.8895H182.285V37.5048H130.517V36.4833C131.193 36.4402 131.869 36.4402 132.549 36.4833H180.977C181.648 36.4258 182.334 36.4258 183 36.4258V75.9901Z" fill="black"/>
<path fill-rule="evenodd" clip-rule="evenodd" d="M93.1956 0.304651C90.3023 1.6864 88.8909 6.77941 90.2679 10.8674C91.1259 13.4148 92.746 14.8493 94.7592 14.8442C100.067 14.831 101.739 4.34651 97.0092 0.738959C95.9847 -0.042436 94.3194 -0.232165 93.1956 0.304651ZM74.9974 18.2384C74.3939 19.1891 74.4073 20.8289 75.0258 21.6889C75.4863 22.3288 75.6074 22.3405 81.7114 22.3405H87.9282V32.3814V42.4224H92.9687H98.0092L98.0975 44.2324C98.1636 45.5836 98.2995 46.2103 98.6338 46.7052C99.0712 47.3526 99.211 47.37 104.727 47.456L110.373 47.5441L110.951 46.8086L111.53 46.0728L111.632 40.2763C111.763 32.7756 111.67 31.4586 110.948 30.5393C110.45 29.906 110.197 29.8337 108.48 29.8337H106.567L106.565 26.6116C106.562 22.832 106.142 21.069 104.841 19.3785C103.743 17.9518 102.946 17.5448 101.25 17.5448H99.7697L98.1652 22.3222C97.2829 24.9496 96.5051 27.0486 96.4371 26.9863C96.369 26.9242 96.0961 25.511 95.8303 23.846L95.3473 20.8187L95.8901 19.1816L96.4326 17.5448H94.8141C93.9239 17.5448 93.1956 17.6167 93.1956 17.7046C93.1956 17.7927 93.417 18.5108 93.6875 19.3006L94.1794 20.7369L93.6188 24.0115L93.0584 27.286L91.4038 22.4154L89.7491 17.5448H82.5935H75.4381L74.9974 18.2384ZM78.0416 25.3977C77.9079 25.5955 77.7985 26.13 77.7985 26.5849C77.7985 27.3073 77.6887 27.4551 76.9375 27.7431C76.464 27.925 75.7574 28.2011 75.3674 28.3567C74.7592 28.5991 74.6188 28.5539 74.3803 28.0377C73.809 26.8008 72.7337 27.5693 72.7337 29.2145C72.7337 29.8073 72.8418 29.8337 75.2661 29.8337H77.7985V34.9291V40.0245H76.6182C75.6465 40.0245 75.3603 40.1471 74.9974 40.7181C74.7551 41.0997 74.557 41.6392 74.557 41.917C74.557 42.3744 74.9502 42.4224 78.7102 42.4224C82.5961 42.4224 82.8633 42.3873 82.8633 41.8751C82.8633 40.7733 82.0179 40.0245 80.7738 40.0245H79.6218V34.9291V29.8337H82.1542C84.5785 29.8337 84.6867 29.8073 84.6867 29.2145C84.6867 27.5693 83.6113 26.8008 83.04 28.0377C82.8015 28.5539 82.6611 28.5991 82.053 28.3567C81.663 28.2011 80.9563 27.925 80.4829 27.7431C79.7316 27.4551 79.6218 27.3073 79.6218 26.5849C79.6218 25.5973 79.2922 25.038 78.7102 25.038C78.4762 25.038 78.1753 25.1999 78.0416 25.3977ZM101.745 25.3977C101.604 25.6069 101.502 26.6098 101.502 27.7956V29.8337H102.312H103.123V27.7956C103.123 25.7262 102.92 25.038 102.312 25.038C102.134 25.038 101.879 25.1999 101.745 25.3977ZM71.9636 32.3967C70.727 36.1068 71.137 37.327 73.6198 37.327C75.0096 37.327 75.2385 37.2451 75.6804 36.5911C75.9539 36.1865 76.1733 35.6134 76.1678 35.3173C76.1589 34.8473 74.5876 30.0423 74.5706 30.4332C74.5669 30.5156 74.7357 31.5608 74.9454 32.7561L75.3271 34.9291H73.6453H71.9636L72.3396 32.7675C72.5463 31.5787 72.6919 30.5714 72.6636 30.5291C72.635 30.4868 72.32 31.3273 71.9636 32.3967ZM81.9926 32.6967C81.5801 33.9298 81.2426 35.121 81.2426 35.3433C81.2426 35.5654 81.4316 36.1029 81.6626 36.5372C82.0534 37.2724 82.194 37.327 83.6976 37.327C85.1425 37.327 85.3654 37.2493 85.81 36.5911C86.0835 36.1865 86.303 35.6134 86.2975 35.3173C86.2886 34.8473 84.7173 30.0423 84.7002 30.4332C84.6966 30.5156 84.8654 31.5608 85.075 32.7561L85.4567 34.9291H83.775H82.0933L82.4693 32.7675C82.6759 31.5787 82.822 30.5717 82.7938 30.53C82.7657 30.4883 82.4051 31.4633 81.9926 32.6967ZM99.8812 38.6757V44.8202H104.946H110.011V38.6757V32.5313H108.289H106.567V36.741C106.567 40.8113 106.55 40.9753 106.069 41.6865C105.372 42.7179 104.471 42.6642 103.715 41.5463L103.123 40.6701V36.6007V32.5313H101.502H99.8812V38.6757Z" fill="black"/>
<path d="M6.51239 49.0728V60.0908H10.2725C11.4476 60.0908 12.3997 58.6821 12.3997 56.9437C12.3997 55.8347 11.9014 54.6477 11.3138 54.288C11.7312 53.9464 12.0959 52.9572 12.0959 52.07C12.0959 50.4095 11.2044 49.0728 10.078 49.0728H6.51239ZM7.52536 58.742V55.0973H10.2725C10.8884 55.0973 11.3868 56.0265 11.3868 56.9437C11.3868 57.8548 10.8884 58.742 10.2725 58.742H7.52536ZM7.52536 53.7485V50.4215H10.078C10.6372 50.4215 11.0829 51.2308 11.0829 52.07C11.0829 52.8793 10.6372 53.7365 10.078 53.7485H7.52536ZM13.4127 57.4232C13.4127 58.9219 14.1299 60.1388 15.3373 60.1388C16.3584 60.1388 17.027 59.5033 17.5861 58.8439L17.7482 60.0908H18.5586V55.0673C18.5586 52.7295 17.5456 51.6504 16.1477 51.6504C15.155 51.6504 14.5959 51.9981 13.907 52.5796V54.0483H14.7174L14.7782 53.4488C15.1834 53.1371 15.5278 53.0472 16.1477 53.0472C16.8852 53.0472 17.5456 53.6466 17.5456 54.7856V55.3071C16.9864 54.9055 16.3382 54.7137 15.3373 54.7137C14.1299 54.7137 13.4127 55.9246 13.4127 57.4232ZM14.3933 57.4232C14.3933 56.7338 14.6688 56.0445 15.4386 56.0445C16.2369 56.0445 17.0067 56.2543 17.5456 56.6439V57.3753C16.9986 58.1546 16.3382 58.802 15.5399 58.802C14.7701 58.802 14.3933 58.1126 14.3933 57.4232ZM20.5845 60.0908V53.0891H23.7044V51.6984H19.5715V60.0908H20.5845ZM29.8633 60.0908V51.6984H28.0197L25.933 58.6941H25.7304V51.6984H24.7174V60.0908H26.4881L28.5545 53.0891H28.8503V60.0908H29.8633ZM31.8487 52.8973L32.5577 53.0472L31.8689 58.0527C31.8163 58.4243 31.6056 58.6941 31.4435 58.6941H30.8762V62.1889H31.7879L31.8892 60.0908H36.2247L36.326 62.1889H37.2376V58.6941H36.5286V51.6984H31.8487V52.8973ZM32.7684 58.6941L33.5586 53.0472H35.5156V58.6941H32.7684ZM40.8843 51.6504C39.3 51.6504 37.9346 53.5567 37.9346 55.8766C37.9346 58.2325 39.3 60.1388 40.8843 60.1388C42.4524 60.1388 43.8219 58.2325 43.8219 55.8766C43.8219 53.5567 42.4524 51.6504 40.8843 51.6504ZM40.8843 53.1491C41.9175 53.1491 42.809 54.378 42.809 55.8766C42.809 57.4052 41.9175 58.6341 40.8843 58.6341C39.8511 58.6341 38.9475 57.4052 38.9475 55.8766C38.9475 54.378 39.8511 53.1491 40.8843 53.1491ZM49.7174 57.5431C49.7174 56.7039 49.3 55.8167 48.8746 55.5469C49.2312 55.2772 49.4216 54.5638 49.4216 54.0782C49.4216 52.7594 48.6923 51.6984 47.7927 51.6984H44.6201V60.0908H47.9953C48.9475 60.0908 49.7174 58.9518 49.7174 57.5431ZM47.9953 56.4641C48.3884 56.4641 48.7044 56.9556 48.7044 57.5431C48.7044 58.1126 48.3884 58.6341 47.9953 58.6341H45.6331V56.4641H47.9953ZM47.7927 53.1491C48.125 53.1491 48.4086 53.5867 48.4086 54.0782C48.4086 54.5878 48.1574 54.9774 47.9143 55.0134H45.6331V53.1491H47.7927ZM50.7992 59.0837C50.7992 59.6232 51.0342 60.0009 51.5083 60.0009C51.5407 60.0908 51.5488 60.1987 51.5488 60.3186C51.5488 60.7322 51.3786 61.3017 51.0748 61.7573L51.3381 62.087C51.6906 61.6194 52.2579 60.7202 52.2579 59.4494C52.2579 58.742 52.0472 58.2025 51.5083 58.2025C51.1153 58.2025 50.7992 58.5442 50.7992 59.0837ZM62.9062 58.6341H62.501C62.3389 58.6341 62.185 58.4243 62.0756 58.0527L61.1315 55.0254C61.0423 54.7257 60.8195 54.4139 60.6777 54.288C60.7587 54.2281 60.8681 54.0662 60.9289 53.8864L61.7717 51.1589C61.8811 50.7812 62.035 50.5714 62.1971 50.5714H62.501V49.2226L62.1971 49.0728C61.6501 49.0728 61.1517 49.5583 60.8802 50.4215L60.0172 53.1491C59.9159 53.5267 59.7133 53.7485 59.5107 53.7485H57.4969V49.0728H56.484V60.0908H57.4969V55.0973H59.6931C59.9281 55.0973 60.1185 55.3851 60.2198 55.7567L61.1841 58.784C61.4556 59.6532 61.954 60.1388 62.501 60.1388L62.9062 59.9829V58.6341ZM63.7166 57.4232C63.7166 58.9219 64.4337 60.1388 65.6412 60.1388C66.6623 60.1388 67.3308 59.5033 67.89 58.8439L68.052 60.0908H68.8624V55.0673C68.8624 52.7295 67.8494 51.6504 66.4516 51.6504C65.4589 51.6504 64.8997 51.9981 64.2109 52.5796V54.0483H65.0213L65.082 53.4488C65.4872 53.1371 65.8316 53.0472 66.4516 53.0472C67.189 53.0472 67.8495 53.6466 67.8495 54.7856V55.3071C67.2903 54.9055 66.642 54.7137 65.6412 54.7137C64.4337 54.7137 63.7166 55.9246 63.7166 57.4232ZM64.6971 57.4232C64.6971 56.7338 64.9726 56.0445 65.7425 56.0445C66.5407 56.0445 67.3106 56.2543 67.8495 56.6439V57.3753C67.3025 58.1546 66.642 58.802 65.8438 58.802C65.0739 58.802 64.6971 58.1126 64.6971 57.4232ZM70.8883 60.0908V56.4161H74.0042V60.0908H75.0172V51.6984H74.0042V55.0254H70.8883V51.6984H69.8754V60.0908H70.8883ZM77.0026 52.8973L77.7117 53.0472L77.0229 58.0527C76.9742 58.4243 76.7635 58.6941 76.5974 58.6941H76.0302V62.1889H76.9418L77.0431 60.0908H81.3786L81.4799 62.1889H82.3916V58.6941H81.6825V51.6984H77.0026V52.8973ZM77.9264 58.6941L78.7165 53.0472H80.6695V58.6941H77.9264ZM83.3032 57.4232C83.3032 58.9219 84.0245 60.1388 85.2279 60.1388C86.253 60.1388 86.9216 59.5033 87.4767 58.8439L87.6387 60.0908H88.4491V55.0673C88.4491 52.7295 87.4361 51.6504 86.0383 51.6504C85.0455 51.6504 84.4904 51.9981 83.8016 52.5796V54.0483H84.612L84.6728 53.4488C85.078 53.1371 85.4224 53.0472 86.0383 53.0472C86.7797 53.0472 87.4361 53.6466 87.4361 54.7856V55.3071C86.881 54.9055 86.2327 54.7137 85.2279 54.7137C84.0245 54.7137 83.3032 55.9246 83.3032 57.4232ZM84.2878 57.4232C84.2878 56.7338 84.5593 56.0445 85.3292 56.0445C86.1314 56.0445 86.9013 56.2543 87.4361 56.6439V57.3753C86.8891 58.1546 86.2327 58.802 85.4305 58.802C84.6606 58.802 84.2878 58.1126 84.2878 57.4232ZM90.8802 60.0908H92.0269L91.7919 61.2777C91.7433 61.6494 91.5204 61.8472 91.3583 61.8472H90.7587V63.196L91.3583 63.3459C91.9053 63.3459 92.501 62.8663 92.6752 61.9971L94.7498 51.6984H93.7368L92.3389 58.5922H91.6015L90.2036 51.6984H89.1906L90.8802 60.0908ZM98.3478 51.6504C97.8211 51.6504 97.0593 52.0581 96.5245 52.5976L96.4029 51.6984H95.5925V63.3459H96.6055V59.5633C97.112 59.9409 97.6468 60.1388 98.0439 60.1388C99.7457 60.1388 100.941 58.2325 100.941 55.8946C100.941 53.5567 99.7457 51.6504 98.3478 51.6504ZM98.1452 53.1491C99.1784 53.1491 99.928 54.396 99.928 55.8946C99.928 57.4232 99.1663 58.6341 98.1452 58.6341C97.5779 58.6341 97.112 58.4243 96.6055 57.9448V53.9763C97.112 53.4668 97.5861 53.1671 98.1452 53.1491ZM104.576 51.6504C102.995 51.6504 101.63 53.5567 101.63 55.8766C101.63 58.2325 102.995 60.1388 104.576 60.1388C106.148 60.1388 107.513 58.2325 107.513 55.8766C107.513 53.5567 106.148 51.6504 104.576 51.6504ZM104.576 53.1491C105.609 53.1491 106.5 54.378 106.5 55.8766C106.5 57.4052 105.609 58.6341 104.576 58.6341C103.542 58.6341 102.643 57.4052 102.643 55.8766C102.643 54.378 103.542 53.1491 104.576 53.1491ZM113.409 57.5431C113.409 56.7039 112.995 55.8167 112.57 55.5469C112.926 55.2772 113.117 54.5638 113.117 54.0782C113.117 52.7594 112.388 51.6984 111.484 51.6984H108.315V60.0908H111.687C112.639 60.0908 113.409 58.9518 113.409 57.5431ZM111.687 56.4641C112.084 56.4641 112.396 56.9556 112.396 57.5431C112.396 58.1126 112.084 58.6341 111.687 58.6341H109.328V56.4641H111.687ZM111.484 53.1491C111.82 53.1491 112.104 53.5867 112.104 54.0782C112.104 54.5878 111.849 54.9774 111.61 55.0134H109.328V53.1491H111.484ZM122.606 60.0908V51.6984H120.763L118.676 58.6941H118.473V51.6984H117.46V60.0908H119.235L121.302 53.0891H121.593V60.0908H122.606ZM127.671 60.0908V53.0891H130.791V60.0908H131.804V51.6984H126.658V60.0908H127.671ZM132.716 57.4232C132.716 58.9219 133.437 60.1388 134.64 60.1388C135.665 60.1388 136.334 59.5033 136.889 58.8439L137.051 60.0908H137.862V55.0673C137.862 52.7295 136.849 51.6504 135.451 51.6504C134.458 51.6504 133.903 51.9981 133.214 52.5796V54.0483H134.024L134.085 53.4488C134.49 53.1371 134.835 53.0472 135.451 53.0472C136.192 53.0472 136.849 53.6466 136.849 54.7856V55.3071C136.293 54.9055 135.645 54.7137 134.64 54.7137C133.437 54.7137 132.716 55.9246 132.716 57.4232ZM133.7 57.4232C133.7 56.7338 133.972 56.0445 134.742 56.0445C135.544 56.0445 136.314 56.2543 136.849 56.6439V57.3753C136.302 58.1546 135.645 58.802 134.843 58.802C134.073 58.802 133.7 58.1126 133.7 57.4232ZM141.63 51.6504C141.103 51.6504 140.345 52.0581 139.806 52.5976L139.685 51.6984H138.875V63.3459H139.887V59.5633C140.394 59.9409 140.933 60.1388 141.326 60.1388C143.028 60.1388 144.223 58.2325 144.223 55.8946C144.223 53.5567 143.028 51.6504 141.63 51.6504ZM141.427 53.1491C142.46 53.1491 143.21 54.396 143.21 55.8946C143.21 57.4232 142.452 58.6341 141.427 58.6341C140.86 58.6341 140.394 58.4243 139.887 57.9448V53.9763C140.394 53.4668 140.872 53.1671 141.427 53.1491ZM147.963 60.0908V53.0891H149.989V51.6984H144.924V53.0891H146.95V60.0908H147.963ZM152.015 60.0908V56.4161H155.135V60.0908H156.148V51.6984H155.135V55.0254H152.015V51.6984H151.002V60.0908H152.015ZM159.693 58.6821C158.802 58.6821 158.072 57.705 157.89 56.4161H162.396C162.408 56.3142 162.416 56.0565 162.416 55.8766C162.416 53.4788 161.192 51.6504 159.673 51.6504C158.092 51.6504 156.845 53.5567 156.845 55.8766C156.845 58.2745 158.113 60.1388 159.693 60.1388C161.152 60.1388 161.828 59.0118 161.95 58.784L161.334 57.633C161.16 57.9328 160.665 58.6821 159.693 58.6821ZM159.673 53.1491C160.503 53.1491 161.192 54.0183 161.314 55.0254H157.93C158.133 53.9464 158.822 53.1491 159.673 53.1491ZM166.144 51.6504C165.617 51.6504 164.859 52.0581 164.32 52.5976L164.199 51.6984H163.388V63.3459H164.401V59.5633C164.908 59.9409 165.447 60.1388 165.84 60.1388C167.541 60.1388 168.737 58.2325 168.737 55.8946C168.737 53.5567 167.541 51.6504 166.144 51.6504ZM165.941 53.1491C166.974 53.1491 167.724 54.396 167.724 55.8946C167.724 57.4232 166.966 58.6341 165.941 58.6341C165.374 58.6341 164.908 58.4243 164.401 57.9448V53.9763C164.908 53.4668 165.386 53.1671 165.941 53.1491ZM169.64 60.0908H172.708C173.712 60.0908 174.531 58.8919 174.531 57.3932C174.531 55.9066 173.712 54.7257 172.708 54.7257H170.653V51.6984H169.64V60.0908ZM175.212 60.0908H176.225V51.6984H175.212V60.0908ZM170.653 58.6341V56.1763H172.708C173.174 56.1763 173.55 56.7039 173.55 57.3932C173.55 58.0826 173.174 58.6341 172.708 58.6341H170.653Z" fill="black"/>
</svg>
