<svg width="48" height="48" viewBox="0 0 48 48" fill="none" xmlns="http://www.w3.org/2000/svg">
<path d="M5.00395 42.2309C5.00538 42.3333 5.02698 42.4345 5.06751 42.5286C5.10804 42.6226 5.16671 42.7078 5.24016 42.7792C5.31361 42.8506 5.40041 42.9069 5.49561 42.9447C5.5908 42.9826 5.69251 43.0013 5.79495 42.9999H42.2019C42.3045 43.0015 42.4063 42.9828 42.5016 42.945C42.5969 42.9072 42.6838 42.851 42.7574 42.7796C42.8309 42.7082 42.8897 42.6229 42.9303 42.5288C42.9709 42.4346 42.9925 42.3334 42.9939 42.2309V41.3129C43.0119 41.0359 43.0489 39.6559 42.1389 38.1289C41.5649 37.1659 40.7319 36.3349 39.6629 35.6569C38.3699 34.8369 36.7249 34.2439 34.7349 33.8869C33.7248 33.7447 32.7227 33.5498 31.7329 33.3029C29.1009 32.6309 28.8709 32.0359 28.8689 32.0299C28.8537 31.9711 28.8316 31.9144 28.8029 31.8609C28.7809 31.7509 28.7279 31.3329 28.8299 30.2139C29.0879 27.3709 30.6129 25.6909 31.8379 24.3409C32.2239 23.9159 32.5889 23.5129 32.8699 23.1189C34.0829 21.4189 34.1949 19.4839 34.1999 19.3639C34.2045 19.1513 34.1752 18.9393 34.1129 18.7359C33.9929 18.3659 33.7699 18.1359 33.6059 17.9659C33.5671 17.927 33.5295 17.887 33.4929 17.8459C33.4809 17.8319 33.4489 17.7939 33.4779 17.6029C33.576 16.9876 33.6438 16.3678 33.6809 15.7459C33.7369 14.7439 33.7799 13.2459 33.5209 11.7869C33.4829 11.5082 33.4254 11.2325 33.3489 10.9619C33.0759 9.95789 32.6379 9.09989 32.0289 8.39189C31.9239 8.27689 29.3759 5.59189 21.9789 5.04189C20.9559 4.96589 19.9449 5.00689 18.9489 5.05789C18.6544 5.06444 18.3613 5.10062 18.0739 5.16589C17.3099 5.36289 17.1059 5.84689 17.0529 6.11789C16.9639 6.56789 17.1199 6.91589 17.2229 7.14789C17.2379 7.18089 17.2569 7.22189 17.2239 7.32989C17.0529 7.59589 16.7819 7.83589 16.5069 8.06289C16.4269 8.12989 14.5729 9.72989 14.4709 11.8189C14.1959 13.4079 14.2159 15.8829 14.5409 17.5939C14.5609 17.6889 14.5879 17.8289 14.5429 17.9239C14.1929 18.2369 13.7969 18.5919 13.7979 19.4019C13.8019 19.4839 13.9149 21.4179 15.1279 23.1189C15.4079 23.5129 15.7729 23.9149 16.1579 24.3399L16.1599 24.3409C17.3849 25.6909 18.9099 27.3709 19.1679 30.2129C19.2689 31.3329 19.2159 31.7499 19.1949 31.8609C19.1659 31.9143 19.1434 31.9711 19.1279 32.0299C19.1269 32.0359 18.8979 32.6289 16.2779 33.2999C14.7659 33.6869 13.2779 33.8849 13.2329 33.8899C11.2989 34.2169 9.66395 34.7959 8.37295 35.6109C7.30795 36.2839 6.47295 37.1179 5.89295 38.0879C4.96495 39.6379 4.98995 41.0499 5.00295 41.3079V42.2309H5.00395Z" stroke="black" stroke-width="4" stroke-linejoin="round"/>
</svg>
