<svg width="1025" height="1024" viewBox="0 0 1025 1024" fill="none" xmlns="http://www.w3.org/2000/svg">
<path d="M896.428 1024V960C896.428 918.667 888.428 882.333 872.428 851C856.428 819.667 833.595 794.167 803.928 774.5C774.261 754.833 740.595 739.333 702.928 728C665.261 716.667 623.095 709.333 576.428 706V690C630.428 667.333 675.928 621.5 712.928 552.5C749.928 483.5 768.428 411.667 768.428 337C768.428 268.333 744.595 216.333 696.928 181C649.261 145.667 587.761 128 512.428 128C437.095 128 375.595 145.667 327.928 181C280.261 216.333 256.428 268.333 256.428 337C256.428 409.667 275.428 480.333 313.428 549C351.428 617.667 396.428 664 448.428 688V706C401.761 709.333 359.595 716.667 321.928 728C284.261 739.333 250.595 754.833 220.928 774.5C191.261 794.167 168.428 819.667 152.428 851C136.428 882.333 128.428 918.667 128.428 960V1024C93.0946 1024 62.928 1011.5 37.928 986.5C12.928 961.5 0.427979 931.333 0.427979 896V128C0.427979 92.6667 12.928 62.5 37.928 37.5C62.928 12.5 93.0946 0 128.428 0H896.428C931.761 0 961.928 12.5 986.928 37.5C1011.93 62.5 1024.43 92.6667 1024.43 128V896C1024.43 931.333 1011.93 961.5 986.928 986.5C961.928 1011.5 931.761 1024 896.428 1024V1024Z" fill="black"/>
</svg>
