<svg width="16" height="16" viewBox="0 0 16 16" fill="none" xmlns="http://www.w3.org/2000/svg">
<path fill-rule="evenodd" clip-rule="evenodd" d="M15.924 3.77885C15.924 -0.0371499 9.78696 0.0898501 7.63696 0.0898501C5.48496 0.0898501 0.0379639 0.13585 0.0379639 3.95285H3.94696L3.95096 2.99585C3.95096 2.55785 4.42996 1.96885 5.50396 1.96885H10.517C11.563 1.96885 12.054 2.55785 12.054 2.99585C12.054 3.14985 12.062 3.92285 12.062 3.95285H15.922L15.924 3.77885V3.77885Z" fill="black"/>
<path fill-rule="evenodd" clip-rule="evenodd" d="M4.98694 9.33792C4.98405 9.50431 4.91523 9.66275 4.79561 9.77843C4.67598 9.89412 4.51533 9.9576 4.34894 9.95492H3.65194C3.56947 9.95638 3.48751 9.94157 3.41076 9.91135C3.33401 9.88113 3.26397 9.83609 3.20463 9.77879C3.14529 9.7215 3.09782 9.65307 3.06493 9.57743C3.03204 9.50178 3.01437 9.4204 3.01294 9.33792V8.66192C3.01294 8.32092 3.29894 8.04492 3.65194 8.04492H4.34894C4.70094 8.04492 4.98694 8.32092 4.98694 8.66192V9.33792Z" fill="black"/>
<path fill-rule="evenodd" clip-rule="evenodd" d="M12.975 9.34477C12.9751 9.42867 12.9586 9.51177 12.9266 9.5893C12.8945 9.66684 12.8474 9.73726 12.788 9.79655C12.7287 9.85583 12.6581 9.9028 12.5806 9.93476C12.503 9.96671 12.4199 9.98303 12.336 9.98277H11.64C11.5561 9.9829 11.4731 9.96649 11.3956 9.93447C11.3182 9.90245 11.2478 9.85546 11.1885 9.79619C11.1293 9.73692 11.0823 9.66654 11.0503 9.58907C11.0182 9.51161 11.0018 9.42859 11.002 9.34477V8.64777C11.002 8.29477 11.287 8.00977 11.64 8.00977H12.336C12.69 8.00977 12.975 8.29477 12.975 8.64777V9.34477Z" fill="black"/>
<path fill-rule="evenodd" clip-rule="evenodd" d="M8.98594 9.34867C8.98607 9.43249 8.96966 9.51551 8.93764 9.59298C8.90563 9.67044 8.85864 9.74083 8.79937 9.8001C8.7401 9.85937 8.66971 9.90636 8.59225 9.93838C8.51478 9.97039 8.43176 9.9868 8.34794 9.98667H7.64994C7.5662 9.98667 7.48329 9.97016 7.40594 9.93809C7.32859 9.90601 7.25832 9.859 7.19916 9.79975C7.14 9.74049 7.0931 9.67015 7.06114 9.59275C7.02919 9.51535 7.01281 9.43241 7.01294 9.34867V8.65167C7.01294 8.29867 7.29794 8.01367 7.64994 8.01367H8.34794C8.70094 8.01367 8.98594 8.29867 8.98594 8.65167V9.34867Z" fill="black"/>
<path fill-rule="evenodd" clip-rule="evenodd" d="M4.96194 12.336C4.9626 12.4191 4.94688 12.5016 4.91567 12.5786C4.88447 12.6557 4.8384 12.7258 4.78008 12.7851C4.72176 12.8443 4.65235 12.8915 4.5758 12.9239C4.49925 12.9563 4.41707 12.9733 4.33394 12.974H3.64794C3.56473 12.9735 3.48244 12.9566 3.40577 12.9242C3.32911 12.8918 3.25958 12.8447 3.20115 12.7854C3.14273 12.7262 3.09657 12.656 3.0653 12.5789C3.03404 12.5017 3.01828 12.4192 3.01894 12.336V11.639C3.01894 11.285 3.29994 11 3.64794 11H4.33394C4.68094 11 4.96194 11.285 4.96194 11.639V12.336Z" fill="black"/>
<path fill-rule="evenodd" clip-rule="evenodd" d="M12.943 12.3458C12.9439 12.4276 12.9287 12.5087 12.8981 12.5846C12.8676 12.6605 12.8223 12.7296 12.765 12.788C12.7077 12.8463 12.6394 12.8928 12.564 12.9247C12.4887 12.9566 12.4078 12.9732 12.326 12.9738H11.65C11.5682 12.9732 11.4873 12.9566 11.412 12.9247C11.3366 12.8928 11.2683 12.8463 11.211 12.788C11.1536 12.7296 11.1084 12.6605 11.0779 12.5846C11.0473 12.5087 11.0321 12.4276 11.033 12.3458V11.6598C11.033 11.3108 11.308 11.0308 11.65 11.0308H12.326C12.668 11.0308 12.943 11.3108 12.943 11.6598V12.3458V12.3458Z" fill="black"/>
<path fill-rule="evenodd" clip-rule="evenodd" d="M8.98201 12.3458C8.98162 12.4289 8.96481 12.5111 8.93255 12.5877C8.90028 12.6643 8.85321 12.7338 8.79401 12.7921C8.73482 12.8505 8.66469 12.8966 8.58763 12.9277C8.51058 12.9589 8.42813 12.9746 8.34501 12.9738H7.64801C7.56485 12.9746 7.48234 12.9589 7.40523 12.9278C7.32812 12.8966 7.25792 12.8505 7.19865 12.7922C7.13938 12.7339 7.09221 12.6644 7.05983 12.5878C7.02746 12.5112 7.01053 12.4289 7.01001 12.3458V11.6598C7.01001 11.3108 7.29501 11.0308 7.64801 11.0308H8.34501C8.69801 11.0308 8.98201 11.3108 8.98201 11.6598V12.3458Z" fill="black"/>
<path fill-rule="evenodd" clip-rule="evenodd" d="M4.99292 15.3467C4.99162 15.4292 4.97408 15.5106 4.94131 15.5863C4.90854 15.662 4.86118 15.7305 4.80194 15.7879C4.74269 15.8453 4.67272 15.8904 4.59602 15.9208C4.51932 15.9511 4.43739 15.966 4.35492 15.9647H3.65792C3.57536 15.9662 3.49333 15.9513 3.41652 15.921C3.3397 15.8908 3.26961 15.8456 3.21026 15.7882C3.15091 15.7308 3.10346 15.6623 3.07062 15.5865C3.03779 15.5108 3.02022 15.4293 3.01892 15.3467V14.6707C3.01892 14.3297 3.30492 14.0537 3.65792 14.0537H4.35492C4.70692 14.0537 4.99292 14.3297 4.99292 14.6707V15.3467Z" fill="black"/>
<path fill-rule="evenodd" clip-rule="evenodd" d="M12.975 15.357C12.9751 15.4409 12.9586 15.5241 12.9266 15.6017C12.8945 15.6792 12.8475 15.7497 12.7881 15.8091C12.7287 15.8685 12.6582 15.9155 12.5806 15.9476C12.5031 15.9797 12.4199 15.9961 12.336 15.996H11.64C11.5561 15.9961 11.4729 15.9797 11.3954 15.9476C11.3179 15.9155 11.2475 15.8684 11.1882 15.809C11.1289 15.7497 11.0819 15.6792 11.05 15.6016C11.018 15.524 11.0017 15.4409 11.002 15.357V14.66C11.002 14.307 11.287 14.022 11.64 14.022H12.336C12.69 14.022 12.975 14.307 12.975 14.66V15.357Z" fill="black"/>
<path fill-rule="evenodd" clip-rule="evenodd" d="M8.98192 15.357C8.98298 15.4402 8.96757 15.5228 8.93658 15.6C8.90559 15.6772 8.85964 15.7475 8.80137 15.8069C8.74309 15.8663 8.67364 15.9136 8.59703 15.946C8.52041 15.9785 8.43813 15.9955 8.35492 15.996H7.66892C7.58572 15.9955 7.50344 15.9785 7.42682 15.946C7.3502 15.9136 7.28075 15.8663 7.22248 15.8069C7.1642 15.7475 7.11825 15.6772 7.08726 15.6C7.05627 15.5228 7.04086 15.4402 7.04192 15.357V14.66C7.04192 14.307 7.32092 14.022 7.66892 14.022H8.35492C8.70292 14.022 8.98192 14.307 8.98192 14.66V15.357Z" fill="black"/>
<path fill-rule="evenodd" clip-rule="evenodd" d="M0.992017 5.973H3.03902C3.03902 5.973 3.74602 6.201 3.92602 5H0.0670166C0.234017 6.113 0.992017 5.973 0.992017 5.973Z" fill="black"/>
<path fill-rule="evenodd" clip-rule="evenodd" d="M12.115 5C12.324 6.053 13.078 5.973 13.078 5.973H14.969C14.969 5.973 15.727 5.984 15.912 5H12.115V5Z" fill="black"/>
</svg>
