<svg width="64" height="64" viewBox="0 0 64 64" fill="none" xmlns="http://www.w3.org/2000/svg">
<path d="M62 20.883C62 15.74 59.613 11.291 56.133 9.094C51.537 6.063 42.445 3.999 31.977 4C19.928 3.999 9.707 6.732 6.063 10.525C3.59 12.956 2 16.689 2 20.884C2 23.342 11.648 24.152 18.037 23.321C17.941 23.489 17.86 23.664 17.775 23.837C15.757 26.486 14.12 31.298 13.082 34.974C9.068 38.191 6.448 44.427 6.448 44.427V51.712C6.44614 52.7812 6.86902 53.8073 7.62364 54.5648C8.37826 55.3222 9.40282 55.7489 10.472 55.751H10.627V55.963C10.6254 57.032 11.0484 58.0579 11.803 58.8151C12.5576 59.5723 13.582 59.9989 14.651 60.001H20.207C20.7364 60.0001 21.2604 59.8949 21.7491 59.6915C22.2378 59.4881 22.6816 59.1904 23.0553 58.8154C23.429 58.4404 23.7251 57.9955 23.9268 57.5061C24.1286 57.0167 24.2319 56.4924 24.231 55.963V55.75H39.767V55.962C39.7654 57.0308 40.1883 58.0566 40.9426 58.8138C41.697 59.5709 42.7212 59.9976 43.79 60H49.346C49.8754 59.9991 50.3994 59.8939 50.8881 59.6905C51.3768 59.4871 51.8206 59.1894 52.1943 58.8144C52.568 58.4394 52.8641 57.9945 53.0658 57.5051C53.2676 57.0157 53.3709 56.4914 53.37 55.962V55.75H53.525C54.0545 55.7491 54.5786 55.6439 55.0674 55.4404C55.5563 55.2369 56.0002 54.9392 56.374 54.5641C56.7478 54.189 57.044 53.744 57.2458 53.2545C57.4475 52.765 57.5509 52.2405 57.55 51.711V44.426C57.55 44.426 54.929 38.189 50.915 34.973C49.923 31.46 48.384 26.908 46.488 24.198C46.3665 23.9037 46.229 23.6162 46.076 23.337C52.468 24.142 62 23.325 62 20.883ZM31.977 12.592C34.051 12.592 36.05 12.692 37.988 12.848C37.681 13.423 37.353 13.952 37.08 14.117C36.117 14.698 34.171 15.06 32 15.06C29.829 15.06 27.882 14.699 26.919 14.117C26.646 13.951 26.317 13.421 26.011 12.844C27.9955 12.6803 29.9858 12.5962 31.977 12.592V12.592ZM19.22 10.079C19.477 9.681 20.214 9.51 21.001 9.51C21.888 9.51 22.839 9.726 23.238 10.079C24.332 11.041 25.159 14.221 26.402 14.973C27.601 15.698 29.8 16.06 32 16.06C34.2 16.06 36.397 15.698 37.597 14.973C38.841 14.221 39.668 11.041 40.761 10.079C41.161 9.726 42.112 9.51 42.999 9.51C43.786 9.51 44.524 9.68 44.781 10.079C45.991 11.956 43.382 16.292 40.954 18.57C38.405 17.226 35.313 16.455 32.144 16.455C28.914 16.455 25.741 17.256 23.127 18.649C20.679 16.394 17.995 11.978 19.22 10.079V10.079ZM46.129 25.488C46.58 27.176 46.405 28.861 45.737 30.423L42.71 25.483L41.397 25.926L44.334 32.692C41.907 35.595 37.481 37.651 31.879 37.651C22.212 37.651 16.17 31.548 17.95 25.489C19.385 20.608 25.637 17.297 32.148 17.297C38.659 17.297 44.823 20.607 46.129 25.488" fill="black"/>
<path d="M32.09 21.707C29.049 21.707 26.364 23.385 26.069 25.632C25.743 28.096 28.376 30.279 31.977 30.279C35.577 30.279 38.266 28.095 38.006 25.632C37.77 23.385 35.128 21.707 32.09 21.707" fill="black"/>
<path d="M30.345 20.501C31.299 21.119 32.895 21.119 33.866 20.501C34.81 19.9 34.764 18.961 33.81 18.4C32.88 17.855 31.398 17.855 30.455 18.4C29.484 18.961 29.416 19.9 30.345 20.501" fill="black"/>
<path d="M38.59 22.6681C40.029 22.6681 41.064 21.9151 40.903 21.0171C40.75 20.1531 39.537 19.4771 38.194 19.4771C36.847 19.4771 35.807 20.1551 35.867 21.0171C35.929 21.9151 37.146 22.6681 38.59 22.6681Z" fill="black"/>
<path d="M36.532 30.6522C36.624 31.9742 38.123 33.0912 39.886 33.0912C41.64 33.0912 42.866 31.9742 42.63 30.6522C42.403 29.3902 40.916 28.4102 39.303 28.4102C37.684 28.4102 36.445 29.3912 36.532 30.6522Z" fill="black"/>
<path d="M34.146 31.4271C32.933 30.5041 31.009 30.5041 29.775 31.4271C28.497 32.3801 28.378 33.9961 29.585 35.0421C30.839 36.1251 32.959 36.1251 34.238 35.0421C35.476 33.9961 35.398 32.3791 34.146 31.4271Z" fill="black"/>
<path d="M24.6979 28.4102C23.0809 28.4102 21.5699 29.3892 21.3099 30.6522C21.0389 31.9712 22.2329 33.0912 23.9919 33.0912C25.7509 33.0912 27.2829 31.9712 27.4089 30.6522C27.5279 29.3902 26.3139 28.4102 24.6979 28.4102Z" fill="black"/>
<path d="M24.019 26.7649C25.243 25.9879 25.419 24.7779 24.476 24.0589C23.559 23.3619 21.885 23.3619 20.678 24.0589C19.437 24.7779 19.112 25.9879 20.011 26.7649C20.938 27.5659 22.759 27.5659 24.019 26.7649" fill="black"/>
<path d="M25.563 22.6681C27.002 22.6681 28.245 21.9141 28.329 21.0181C28.413 20.1531 27.388 19.4771 26.044 19.4771C24.698 19.4771 23.471 20.1531 23.294 21.0181C23.109 21.9141 24.121 22.6681 25.563 22.6681" fill="black"/>
</svg>
